PathFileType	4	(X/Y/Z)	C:/Users/Rosti/Documents/GitHub/TechForParalysis/Code/Model/04122019 - Marker Volunteer01/Rosti Data/New Session 103.trc	
DataRate	CameraRate	NumFrames	NumMarkers	Units	OrigDataRate	OrigDataStartFrame	OrigNumFrames	
100.00	100.00	22	14	mm	100.00	233	620	
Frame#	Time	C7			PX			T8			IJ			SC			AC			AI			TS			AA			GH			LE			ME			US			RS			
		X1	Y1	Z1	X2	Y2	Z2	X3	Y3	Z3	X4	Y4	Z4	X5	Y5	Z5	X6	Y6	Z6	X7	Y7	Z7	X8	Y8	Z8	X9	Y9	Z9	X10	Y10	Z10	X11	Y11	Z11	X12	Y12	Z12	X13	Y13	Z13	X14	Y14	Z14	

233	2.320	702.38519	13.82296	1534.33789	466.20245	-17.95564	1294.20520	768.12463	6.76932	1319.15283	536.82129	-13.36968	1435.42822	541.47284	11.85851	1442.66321	606.70825	160.42397	1471.85339	736.99945	94.08302	1453.25159	768.91888	89.65896	1335.52136	675.74384	209.22441	1425.55261	634.80573	221.02415	1437.76489	543.28143	264.89862	1153.30786	515.68060	178.51141	1125.63330	270.24426	317.55035	1099.41809	299.96088	372.61868	1146.07581 
234	2.330	702.36890	13.87578	1534.34497	466.20261	-17.92270	1294.20740	768.28455	6.81239	1319.20642	536.80792	-13.27897	1435.43237	541.44019	11.95241	1442.68689	606.75415	160.47998	1471.91345	736.97217	94.17867	1453.20691	768.93207	89.75920	1335.53967	675.71997	209.26224	1425.51013	634.83252	221.06636	1437.79028	542.18219	265.78641	1154.21509	514.52521	179.40034	1126.05249	267.31537	317.18179	1110.88318	298.49908	371.46545	1157.52734 
235	2.340	702.35107	13.92303	1534.34509	466.22928	-17.88488	1294.19067	768.45569	6.86152	1319.26147	536.79645	-13.19737	1435.43835	541.40692	12.03522	1442.71680	606.80621	160.52502	1471.97644	736.94867	94.26962	1453.15601	768.93567	89.87291	1335.55396	675.69659	209.29591	1425.46924	634.86066	221.10103	1437.83093	541.04303	266.78629	1155.17358	513.28174	180.33585	1126.56018	264.87460	316.67206	1122.40479	297.38303	370.15192	1169.01660 
236	2.350	702.32813	13.96539	1534.34033	466.28860	-17.83540	1294.14246	768.62714	6.91588	1319.31628	536.78632	-13.12617	1435.44678	541.38129	12.11018	1442.73352	606.86029	160.52710	1472.01440	736.93225	94.35090	1453.10242	768.92303	89.99207	1335.56470	675.67499	209.33070	1425.43579	634.89215	221.12415	1437.88684	539.84637	267.87073	1156.19312	511.95941	181.32719	1127.16541	262.83823	315.92218	1134.12964	296.63513	368.69388	1180.51465 
237	2.360	702.29968	14.00380	1534.33569	466.37564	-17.77574	1294.06323	768.78650	6.97516	1319.36853	536.77618	-13.06636	1435.45813	541.36230	12.18140	1442.72986	606.90552	160.46306	1472.01123	736.92352	94.41843	1453.04968	768.88727	90.10866	1335.57153	675.65454	209.36870	1425.41357	634.92047	221.13516	1437.95850	538.57428	268.98996	1157.28711	510.57214	182.38652	1127.87219	261.13568	314.95248	1145.98840	296.23718	367.08829	1191.98730 
238	2.370	702.26837	14.03861	1534.33716	466.46811	-17.71684	1293.97388	768.92273	7.03950	1319.41638	536.76392	-13.01851	1435.47327	541.34381	12.24875	1442.71387	606.93793	160.36154	1471.99194	736.92645	94.46446	1453.00647	768.82367	90.21690	1335.57373	675.63177	209.41232	1425.40442	634.93024	221.13834	1438.04565	537.23267	270.13235	1158.46179	509.12848	183.51489	1128.67371	259.74344	313.78851	1157.85400	296.16116	365.31802	1203.40515 
239	2.380	702.23712	14.06974	1534.34766	466.54440	-17.66941	1293.89648	769.02856	7.10945	1319.45801	536.74725	-12.98242	1435.49268	541.32080	12.30486	1442.69983	606.95953	160.28168	1472.00720	736.94135	94.48806	1452.97974	768.72986	90.31452	1335.56995	675.59625	209.46414	1425.40857	634.91058	221.14160	1438.14832	535.83661	271.29135	1159.70630	507.63232	184.70053	1129.55225	258.67545	312.42862	1169.63977	296.39230	363.35486	1214.74365 
240	2.390	702.20654	14.09781	1534.36511	466.60660	-17.63476	1293.83044	769.10059	7.18599	1319.49292	536.72467	-12.95644	1435.51636	541.28796	12.34319	1442.69568	606.97156	160.25133	1472.08069	736.95935	94.50179	1452.96741	768.60382	90.40452	1335.55847	675.53534	209.52443	1425.42834	634.86285	221.15158	1438.26672	534.40607	272.45093	1160.99329	506.08481	185.92270	1130.48376	257.95227	310.86752	1181.30505	296.94052	361.17801	1225.98181 
241	2.400	702.17499	14.12432	1534.38293	466.66495	-17.60773	1293.76501	769.13873	7.27039	1319.52063	536.69598	-12.93750	1435.54382	541.24176	12.36539	1442.69812	606.97467	160.25529	1472.20154	736.96698	94.52512	1452.95862	768.44379	90.49588	1335.53845	675.44647	209.59167	1425.46692	634.79767	221.17015	1438.40552	532.96326	273.60275	1162.29895	504.48633	187.15588	1131.44275	257.57538	309.11819	1192.83240	297.82217	358.80569	1237.08289 
242	2.410	702.14111	14.15017	1534.39539	466.72638	-17.58248	1293.69238	769.14539	7.36413	1319.54163	536.66162	-12.92211	1435.57361	541.18634	12.38303	1442.69995	606.96985	160.26437	1472.34790	736.95477	94.56967	1452.94214	768.24976	90.60117	1335.51001	675.33740	209.66190	1425.52148	634.72369	221.19574	1438.56860	531.52112	274.75397	1163.61438	502.83847	188.37392	1132.40649	257.55396	307.19562	1204.24927	299.03867	356.28961	1247.99438 
243	2.420	702.10504	14.17569	1534.40015	466.77628	-17.55721	1293.62427	769.12427	7.46870	1319.55676	536.62219	-12.90776	1435.60339	541.13159	12.40746	1442.69714	606.95807	160.26329	1472.50208	736.91998	94.63503	1452.91296	768.02472	90.73193	1335.47485	675.21808	209.73138	1425.58130	634.64197	221.22810	1438.75073	530.08411	275.89557	1164.93506	501.14606	189.55411	1133.35974	257.91495	305.08258	1215.60315	300.58215	353.68283	1258.67090 
244	2.430	702.06750	14.20192	1534.40002	466.80069	-17.53116	1293.57312	769.07922	7.58538	1319.56726	536.57819	-12.89352	1435.63062	541.08063	12.43895	1442.69299	606.93878	160.25542	1472.65063	736.86371	94.71481	1452.87500	767.77863	90.89434	1335.43762	675.09149	209.79787	1425.63586	634.54657	221.26743	1438.94055	528.65302	276.99643	1166.25867	499.41919	190.68130	1134.29919	258.66577	302.76324	1226.87256	302.43893	351.01871	1269.08032 
245	2.440	702.02875	14.23075	1534.40186	466.80621	-17.50208	1293.53882	769.01404	7.71507	1319.57471	536.52972	-12.87955	1435.65308	541.02374	12.46772	1442.69543	606.90698	160.25009	1472.78528	736.78937	94.80381	1452.83972	767.53210	91.08616	1335.40735	674.95227	209.86775	1425.68640	634.42688	221.31058	1439.12427	527.22461	278.03873	1167.57751	497.67603	191.74954	1135.23657	259.78809	300.24847	1237.98267	304.58582	348.30606	1279.20190 
246	2.450	701.98785	14.26388	1534.41357	466.81369	-17.46868	1293.51208	768.93152	7.85802	1319.58044	536.47650	-12.86639	1435.66895	540.94977	12.48331	1442.70935	606.85541	160.24898	1472.90222	736.70190	94.90189	1452.82007	767.31512	91.29766	1335.39685	674.79309	209.95689	1425.74438	634.27264	221.35019	1439.29187	525.80139	279.05063	1168.88171	495.94324	192.75809	1136.19592	261.24615	297.56522	1248.86731	307.00641	345.52478	1289.02747 
247	2.460	701.94312	14.30219	1534.44019	466.83807	-17.43023	1293.48340	768.83398	8.01371	1319.58557	536.41809	-12.85470	1435.67700	540.85852	12.48449	1442.73071	606.78009	160.24583	1473.00256	736.60553	95.01231	1452.82361	767.15253	91.51673	1335.41748	674.60895	210.07660	1425.82031	634.08350	221.38171	1439.44580	524.39624	280.09930	1170.16943	494.23914	193.70584	1137.20532	263.00729	294.74902	1259.49866	309.70459	342.64154	1298.56104 
248	2.470	701.89038	14.34636	1534.48108	466.87262	-17.38734	1293.44995	768.72278	8.18064	1319.59070	536.35364	-12.84501	1435.67700	540.76117	12.47664	1442.75183	606.68414	160.23721	1473.09705	736.50238	95.13662	1452.84961	767.04480	91.73611	1335.47083	674.40137	210.22256	1425.91455	633.87036	221.41037	1439.59851	523.01849	281.19382	1171.44250	492.55023	194.58676	1138.28760	265.05884	291.81488	1269.87500	312.69016	339.65427	1307.81238 
249	2.480	701.82324	14.39742	1534.52905	466.89267	-17.34362	1293.41589	768.59924	8.35633	1319.59595	536.28253	-12.83742	1435.66956	540.66943	12.46710	1442.76587	606.57428	160.22928	1473.20483	736.39258	95.27312	1452.89124	766.97052	91.95669	1335.54858	674.17578	210.37854	1426.01782	633.64941	221.44533	1439.76135	521.65271	282.27448	1172.68591	490.84335	195.39938	1139.44861	267.43619	288.72726	1280.01636	315.96182	336.60065	1316.78662 
250	2.490	701.73743	14.45647	1534.57275	466.88037	-17.30564	1293.38672	768.46503	8.53739	1319.60095	536.20416	-12.83168	1435.65613	540.58624	12.45942	1442.76929	606.45599	160.23596	1473.34436	736.27521	95.41860	1452.93750	766.90295	92.18331	1335.63757	673.93500	210.53233	1426.11658	633.42914	221.48798	1439.93372	520.27142	283.26587	1173.87634	489.09451	196.15791	1140.67395	270.15756	285.46738	1289.93213	319.49875	333.50882	1325.47668 
251	2.500	701.63446	14.52344	1534.60352	466.83612	-17.27975	1293.36340	768.32245	8.71992	1319.60510	536.11859	-12.82726	1435.63879	540.50702	12.45655	1442.76489	606.33020	160.26888	1473.51831	736.14856	95.56794	1452.97693	766.82001	92.41880	1335.72571	673.67871	210.68538	1426.19934	633.20020	221.53099	1440.10339	518.87189	284.15668	1175.00708	487.29181	196.87810	1141.92871	273.18509	282.06915	1299.59680	323.26968	330.37439	1333.86792 
252	2.510	701.52045	14.59709	1534.61829	466.77264	-17.26692	1293.34216	768.17426	8.89992	1319.60803	536.02643	-12.82362	1435.61938	540.42590	12.46460	1442.76282	606.19208	160.32126	1473.70044	736.01337	95.71503	1453.00159	766.70660	92.66084	1335.80420	673.40442	210.84593	1426.26428	632.94391	221.57089	1440.25537	517.46686	284.99863	1176.09497	485.42847	197.55908	1143.16760	276.47168	278.57306	1308.97632	327.24036	327.15665	1341.93909 
253	2.520	701.40240	14.67592	1534.62048	466.70459	-17.26324	1293.31909	768.02368	9.07387	1319.60962	535.92914	-12.82041	1435.59949	540.34521	12.48265	1442.77563	606.03809	160.37105	1473.84766	735.87451	95.85632	1453.01086	766.55823	92.90256	1335.86938	673.11127	211.01584	1426.31628	632.65057	221.61290	1440.38440	516.05872	285.83353	1177.16504	483.53046	198.19705	1144.35535	280.01923	274.98428	1318.05444	331.38455	323.84030	1349.67395 
254	2.530	701.28497	14.75935	1534.61658	466.64041	-17.26263	1293.29480	767.87408	9.23920	1319.61035	535.82849	-12.81753	1435.58008	540.26740	12.50450	1442.80640	605.87146	160.40546	1473.94214	735.73822	95.99228	1453.01062	766.38550	93.13617	1335.92346	672.80768	211.18671	1426.35889	632.32910	221.66452	1440.49548	514.64020	286.67148	1178.23364	481.65604	198.79236	1145.48840	283.82037	271.30527	1326.81836	335.68384	320.46997	1357.06653 
